<mxfile host="Electron" modified="2024-07-24T18:55:01.161Z" agent="Mozilla/5.0 (X11; Linux x86_64) AppleWebKit/537.36 (KHTML, like Gecko) draw.io/24.6.4 Chrome/124.0.6367.207 Electron/30.0.6 Safari/537.36" etag="e6tV8i6-DACSo-JH2B5W" version="24.6.4" type="device">
  <diagram name="Page-1" id="6r_xxN00tEhLJsA6vU1w">
    <mxGraphModel dx="1440" dy="830" grid="1" gridSize="10" guides="1" tooltips="1" connect="1" arrows="1" fold="1" page="1" pageScale="1" pageWidth="850" pageHeight="1400" math="0" shadow="0">
      <root>
        <mxCell id="0" />
        <mxCell id="1" parent="0" />
        <mxCell id="uBrZQJT4jN_2zQBhVWnl-4" style="edgeStyle=orthogonalEdgeStyle;rounded=0;orthogonalLoop=1;jettySize=auto;html=1;exitX=0;exitY=1;exitDx=0;exitDy=0;" edge="1" parent="1" source="BKtG4XcPwPto1d_lw9We-1" target="BKtG4XcPwPto1d_lw9We-2">
          <mxGeometry relative="1" as="geometry" />
        </mxCell>
        <mxCell id="uBrZQJT4jN_2zQBhVWnl-5" style="edgeStyle=orthogonalEdgeStyle;rounded=0;orthogonalLoop=1;jettySize=auto;html=1;exitX=0.25;exitY=1;exitDx=0;exitDy=0;entryX=0.5;entryY=0;entryDx=0;entryDy=0;" edge="1" parent="1" source="BKtG4XcPwPto1d_lw9We-1" target="uBrZQJT4jN_2zQBhVWnl-1">
          <mxGeometry relative="1" as="geometry" />
        </mxCell>
        <mxCell id="uBrZQJT4jN_2zQBhVWnl-6" style="edgeStyle=orthogonalEdgeStyle;rounded=0;orthogonalLoop=1;jettySize=auto;html=1;exitX=0.75;exitY=1;exitDx=0;exitDy=0;entryX=0.5;entryY=0;entryDx=0;entryDy=0;" edge="1" parent="1" source="BKtG4XcPwPto1d_lw9We-1" target="uBrZQJT4jN_2zQBhVWnl-2">
          <mxGeometry relative="1" as="geometry" />
        </mxCell>
        <mxCell id="uBrZQJT4jN_2zQBhVWnl-7" style="edgeStyle=orthogonalEdgeStyle;rounded=0;orthogonalLoop=1;jettySize=auto;html=1;exitX=1;exitY=1;exitDx=0;exitDy=0;entryX=0.5;entryY=0;entryDx=0;entryDy=0;" edge="1" parent="1" source="BKtG4XcPwPto1d_lw9We-1" target="uBrZQJT4jN_2zQBhVWnl-3">
          <mxGeometry relative="1" as="geometry">
            <Array as="points">
              <mxPoint x="520" y="110" />
              <mxPoint x="740" y="110" />
            </Array>
          </mxGeometry>
        </mxCell>
        <mxCell id="BKtG4XcPwPto1d_lw9We-1" value="&lt;font style=&quot;font-size: 25px;&quot;&gt;&lt;b&gt;NPC&lt;/b&gt;&lt;/font&gt;" style="rounded=0;whiteSpace=wrap;html=1;" parent="1" vertex="1">
          <mxGeometry x="320" y="30" width="200" height="60" as="geometry" />
        </mxCell>
        <mxCell id="uBrZQJT4jN_2zQBhVWnl-9" style="edgeStyle=orthogonalEdgeStyle;rounded=0;orthogonalLoop=1;jettySize=auto;html=1;exitX=0.5;exitY=1;exitDx=0;exitDy=0;entryX=0.5;entryY=0;entryDx=0;entryDy=0;" edge="1" parent="1" source="BKtG4XcPwPto1d_lw9We-2" target="uBrZQJT4jN_2zQBhVWnl-8">
          <mxGeometry relative="1" as="geometry" />
        </mxCell>
        <mxCell id="uBrZQJT4jN_2zQBhVWnl-12" style="edgeStyle=orthogonalEdgeStyle;rounded=0;orthogonalLoop=1;jettySize=auto;html=1;exitX=1;exitY=0.5;exitDx=0;exitDy=0;entryX=0;entryY=0.5;entryDx=0;entryDy=0;" edge="1" parent="1" source="BKtG4XcPwPto1d_lw9We-2" target="uBrZQJT4jN_2zQBhVWnl-1">
          <mxGeometry relative="1" as="geometry">
            <mxPoint x="240" y="180" as="targetPoint" />
          </mxGeometry>
        </mxCell>
        <mxCell id="BKtG4XcPwPto1d_lw9We-2" value="Shopkeeper?" style="rounded=1;whiteSpace=wrap;html=1;" parent="1" vertex="1">
          <mxGeometry x="80" y="160" width="120" height="40" as="geometry" />
        </mxCell>
        <mxCell id="uBrZQJT4jN_2zQBhVWnl-14" style="edgeStyle=orthogonalEdgeStyle;rounded=0;orthogonalLoop=1;jettySize=auto;html=1;exitX=1;exitY=0.5;exitDx=0;exitDy=0;entryX=0;entryY=0.5;entryDx=0;entryDy=0;" edge="1" parent="1" source="uBrZQJT4jN_2zQBhVWnl-1" target="uBrZQJT4jN_2zQBhVWnl-2">
          <mxGeometry relative="1" as="geometry" />
        </mxCell>
        <mxCell id="uBrZQJT4jN_2zQBhVWnl-1" value="Quest Giver?" style="rounded=1;whiteSpace=wrap;html=1;" vertex="1" parent="1">
          <mxGeometry x="280" y="160" width="120" height="40" as="geometry" />
        </mxCell>
        <mxCell id="uBrZQJT4jN_2zQBhVWnl-15" style="edgeStyle=orthogonalEdgeStyle;rounded=0;orthogonalLoop=1;jettySize=auto;html=1;exitX=1;exitY=0.5;exitDx=0;exitDy=0;entryX=0;entryY=0.5;entryDx=0;entryDy=0;" edge="1" parent="1" source="uBrZQJT4jN_2zQBhVWnl-2" target="uBrZQJT4jN_2zQBhVWnl-3">
          <mxGeometry relative="1" as="geometry" />
        </mxCell>
        <mxCell id="uBrZQJT4jN_2zQBhVWnl-2" value="Cutscene" style="rounded=1;whiteSpace=wrap;html=1;" vertex="1" parent="1">
          <mxGeometry x="480" y="160" width="120" height="40" as="geometry" />
        </mxCell>
        <mxCell id="uBrZQJT4jN_2zQBhVWnl-3" value="Attributes" style="rounded=1;whiteSpace=wrap;html=1;" vertex="1" parent="1">
          <mxGeometry x="680" y="160" width="120" height="40" as="geometry" />
        </mxCell>
        <mxCell id="uBrZQJT4jN_2zQBhVWnl-8" value="Yes?" style="rounded=1;whiteSpace=wrap;html=1;" vertex="1" parent="1">
          <mxGeometry x="120" y="240" width="40" height="40" as="geometry" />
        </mxCell>
      </root>
    </mxGraphModel>
  </diagram>
</mxfile>
